<?xml version="1.0" encoding="UTF-8" standalone="no"?>
<!-- Created with Inkscape (http://www.inkscape.org/) -->
<svg
   xmlns:dc="http://purl.org/dc/elements/1.1/"
   xmlns:cc="http://creativecommons.org/ns#"
   xmlns:rdf="http://www.w3.org/1999/02/22-rdf-syntax-ns#"
   xmlns:svg="http://www.w3.org/2000/svg"
   xmlns="http://www.w3.org/2000/svg"
   xmlns:sodipodi="http://sodipodi.sourceforge.net/DTD/sodipodi-0.dtd"
   xmlns:inkscape="http://www.inkscape.org/namespaces/inkscape"
   width="143"
   height="112"
   id="svg2696"
   sodipodi:version="0.32"
   inkscape:version="0.46"
   version="1.0"
   sodipodi:docname="Institut de radioprotection et de sûreté nucléaire.svg"
   inkscape:output_extension="org.inkscape.output.svg.inkscape">
  <defs
     id="defs2698">
    <clipPath
       clipPathUnits="userSpaceOnUse"
       id="clipPath29">
      <path
         d="M 19.82,469.1795 L 90.5314,469.1795 L 90.5314,515.7666 L 19.82,515.7666 L 19.82,469.1795 z"
         id="path31" />
    </clipPath>
    <clipPath
       clipPathUnits="userSpaceOnUse"
       id="clipPath21">
      <path
         d="M 0,446.9176 L 114.241,446.9176 L 114.241,535.7476 L 0,535.7476 L 0,446.9176 z"
         id="path23" />
    </clipPath>
    <inkscape:perspective
       sodipodi:type="inkscape:persp3d"
       inkscape:vp_x="0 : 526.18109 : 1"
       inkscape:vp_y="0 : 1000 : 0"
       inkscape:vp_z="744.09448 : 526.18109 : 1"
       inkscape:persp3d-origin="372.04724 : 350.78739 : 1"
       id="perspective2704" />
  </defs>
  <sodipodi:namedview
     id="base"
     pagecolor="#ffffff"
     bordercolor="#666666"
     borderopacity="1.0"
     inkscape:pageopacity="0.0"
     inkscape:pageshadow="2"
     inkscape:zoom="4.5267857"
     inkscape:cx="71.5"
     inkscape:cy="56"
     inkscape:document-units="px"
     inkscape:current-layer="layer1"
     showgrid="false"
     inkscape:window-width="1024"
     inkscape:window-height="712"
     inkscape:window-x="-4"
     inkscape:window-y="-4" />
  <metadata
     id="metadata2701">
    <rdf:RDF>
      <cc:Work
         rdf:about="">
        <dc:format>image/svg+xml</dc:format>
        <dc:type
           rdf:resource="http://purl.org/dc/dcmitype/StillImage" />
      </cc:Work>
    </rdf:RDF>
  </metadata>
  <g
     inkscape:label="Calque 1"
     inkscape:groupmode="layer"
     id="layer1"
     transform="translate(-228.59938,-399.70058)">
    <path
       d="M 228.59938,510.73808 L 371.40062,510.73808 L 371.40062,399.70058 L 228.59938,399.70058 L 228.59938,510.73808 z"
       style="fill:#ffffff;fill-opacity:1;fill-rule:nonzero;stroke:none"
       id="path15" />
    <g
       transform="matrix(1.25,0,0,-1.25,228.59937,1069.3851)"
       id="g17">
      <g
         id="g19"
         clip-path="url(#clipPath21)">
        <g
           id="g25">
          <g
             id="g27"
             clip-path="url(#clipPath29)">
            <path
               d="M 19.8318,494.963 L 24.611,494.963 L 24.611,515.5479 L 19.8318,515.5479 L 19.8318,494.963 z"
               style="fill:#ef2c30;fill-opacity:1;fill-rule:nonzero;stroke:none"
               id="path33" />
            <path
               d="M 37.8858,511.6434 L 36.1053,511.6434 L 36.1053,506.0834 L 37.8546,506.0834 C 39.5102,506.0834 40.7284,507.3329 40.7284,509.0196 C 40.7284,510.5189 39.6039,511.6434 37.8858,511.6434 z M 42.4151,494.963 C 39.3228,500.3357 38.2295,502.3974 37.5422,502.6787 L 36.1053,502.6787 L 36.1053,494.963 L 31.3263,494.963 L 31.3263,515.548 L 37.7609,515.548 C 43.4147,515.548 45.4138,512.7679 45.4138,509.5505 C 45.4138,506.9266 43.5709,505.115 41.7591,504.2718 L 41.7591,504.2403 C 42.8836,503.5844 44.7892,500.2108 47.8189,494.963"
               style="fill:#ef2c30;fill-opacity:1;fill-rule:nonzero;stroke:none"
               id="path35" />
            <path
               d="M 57.7205,494.6508 C 54.6595,494.6508 52.4729,495.6504 50.9113,496.6812 L 52.723,500.0859 C 54.0974,499.1489 55.6589,498.4304 57.4709,498.4304 C 58.8764,498.4304 60.438,498.9301 60.438,500.3357 C 60.438,502.8037 55.4091,503.2094 52.9417,506.0834 C 52.1606,506.989 51.6609,508.1448 51.6609,509.7379 C 51.6609,512.8929 54.191,515.7666 58.9074,515.7666 C 61.094,515.7666 62.9992,515.2045 64.28,514.4859 L 64.1867,510.4876 C 62.2814,511.456 60.8756,512.0182 59.1887,512.0182 C 57.7517,512.0182 56.7213,511.3623 56.7213,510.3627 C 56.7213,507.083 65.4984,507.4578 65.4984,500.9294 C 65.4984,497.0247 62.0315,494.6508 57.7205,494.6508"
               style="fill:#ef2c30;fill-opacity:1;fill-rule:nonzero;stroke:none"
               id="path37" />
            <path
               d="M 87.2372,513.0043 L 82.7943,512.9973 L 82.7964,508.3904 C 82.7964,507.1389 83.0198,505.8698 83.2356,504.6426 C 83.2356,504.6426 83.2376,504.6298 83.2376,504.6286 C 83.0192,504.9926 78.7877,512.0451 78.2033,513.0197 L 78.2033,513.0043 L 78.0605,513.0043 L 73.8711,513.0043 L 73.8711,497.4539 L 78.0605,497.4539 L 78.1905,497.4539 L 78.1905,502.4446 C 78.1905,503.3935 78.0569,504.3063 77.8783,505.3593 C 78.085,505.025 82.156,498.4482 82.7715,497.4539 L 87.2372,497.4539"
               style="fill:#87aadf;fill-opacity:1;fill-rule:nonzero;stroke:none"
               id="path39" />
            <path
               d="M 73.8711,497.4539 L 73.8711,513.0043 L 78.2155,513.0043 L 78.2155,515.548 L 70.5795,515.548 L 70.5795,494.963 L 78.191,494.963 L 78.1905,497.4539"
               style="fill:#ef2c30;fill-opacity:1;fill-rule:nonzero;stroke:none"
               id="path41" />
            <path
               d="M 82.7938,515.5409 L 82.7938,512.9973 L 82.7943,512.9973 L 87.2372,513.0013 L 87.2372,497.4539 L 82.7715,497.4539 L 82.7699,497.4539 L 82.7699,494.963 L 90.5278,494.963 L 90.5278,515.548"
               style="fill:#ef2c30;fill-opacity:1;fill-rule:nonzero;stroke:none"
               id="path43" />
            <path
               d="M 21.6777,490.0304 L 24.5004,487.0725 L 24.5004,489.8506 L 24.9691,489.8506 L 24.9691,485.9355 L 22.1464,488.8935 L 22.1464,486.0897 L 21.6777,486.0897"
               style="fill:#588fd2;fill-opacity:1;fill-rule:nonzero;stroke:none"
               id="path45" />
            <path
               d="M 21.7427,489.8679 C 21.9489,489.6522 24.5654,486.9105 24.5654,486.9105 C 24.5654,486.9105 24.5654,489.6624 24.5654,489.7856 C 24.6463,489.7856 24.8234,489.7856 24.9042,489.7856 C 24.9042,489.6657 24.9042,486.39 24.9042,486.0975 C 24.6979,486.3133 22.0816,489.055 22.0816,489.055 C 22.0816,489.055 22.0816,486.2787 22.0816,486.1547 C 22.0007,486.1547 21.8235,486.1547 21.7427,486.1547 C 21.7427,486.2751 21.7427,489.5755 21.7427,489.8679 z M 21.6127,490.0304 L 21.6127,486.0252 L 22.2113,486.0252 C 22.2113,486.0252 22.2113,488.4435 22.2113,488.7315 C 22.4178,488.5152 25.034,485.7735 25.034,485.7735 L 25.034,489.9156 L 24.4355,489.9156 C 24.4355,489.9156 24.4355,487.5218 24.4355,487.2345 C 24.2292,487.4508 21.6127,490.1919 21.6127,490.1919"
               style="fill:#588fd2;fill-opacity:1;fill-rule:nonzero;stroke:none"
               id="path47" />
            <path
               d="M 28.4152,489.1377 C 28.2752,489.3722 28.096,489.4915 27.8117,489.4915 C 27.5125,489.4915 27.1834,489.2869 27.1834,488.958 C 27.1834,488.6639 27.4726,488.509 27.707,488.419 L 27.9761,488.3145 C 28.5098,488.1047 28.9088,487.8109 28.9088,487.1827 C 28.9088,486.4997 28.3802,486.0101 27.707,486.0101 C 27.0985,486.0101 26.6248,486.4594 26.5448,487.0629 L 27.0186,487.1627 C 27.0138,486.7491 27.343,486.4492 27.7468,486.4492 C 28.1507,486.4492 28.4403,486.7886 28.4403,487.1827 C 28.4403,487.5862 28.1159,487.761 27.7918,487.8956 L 27.5325,488.0054 C 27.1034,488.1902 26.7145,488.4344 26.7145,488.958 C 26.7145,489.5661 27.253,489.9304 27.8217,489.9304 C 28.2404,489.9304 28.5846,489.7258 28.7893,489.362"
               style="fill:#588fd2;fill-opacity:1;fill-rule:nonzero;stroke:none"
               id="path49" />
            <path
               d="M 28.5051,487.1827 C 28.5051,487.6107 28.1741,487.8073 27.8166,487.9554 L 27.5578,488.0652 C 27.1537,488.2388 26.7793,488.4674 26.7793,488.958 C 26.7793,489.5474 27.3163,489.8654 27.8217,489.8654 C 28.1932,489.8654 28.4985,489.6907 28.6951,489.3815 C 28.6217,489.3368 28.4804,489.2523 28.4251,489.2191 C 28.2719,489.4419 28.084,489.5565 27.8117,489.5565 C 27.4783,489.5565 27.1185,489.3277 27.1185,488.958 C 27.1185,488.5755 27.544,488.412 27.6837,488.3587 L 27.9526,488.2542 C 28.5858,488.0054 28.844,487.6949 28.844,487.1827 C 28.844,486.5515 28.3552,486.0751 27.707,486.0751 C 27.1587,486.0751 26.7271,486.4604 26.627,487.014 C 26.7112,487.0317 26.8861,487.0683 26.9667,487.0855 C 26.9825,486.9084 27.0466,486.7433 27.1697,486.6185 C 27.3189,486.4677 27.5238,486.3843 27.7468,486.3843 C 28.1719,486.3843 28.5051,486.7353 28.5051,487.1827 z M 26.6496,488.958 C 26.6496,488.3907 27.083,488.1281 27.5069,487.9458 L 27.7665,487.8356 C 28.1426,487.6798 28.3754,487.5163 28.3754,487.1827 C 28.3754,486.8078 28.0991,486.5143 27.7468,486.5143 C 27.5588,486.5143 27.3867,486.584 27.262,486.7098 C 27.1448,486.8281 27.0815,486.989 27.0835,487.1617 L 27.0845,487.243 L 26.4727,487.1141 L 26.4805,487.054 C 26.5657,486.4118 27.0815,485.9456 27.707,485.9456 C 28.4293,485.9456 28.9738,486.4774 28.9738,487.1827 C 28.9738,487.8961 28.4815,488.1861 27.9998,488.3748 L 27.7306,488.4796 C 27.406,488.6039 27.2483,488.7604 27.2483,488.958 C 27.2483,489.2474 27.5408,489.4265 27.8117,489.4265 C 28.0609,489.4265 28.2246,489.3301 28.3594,489.1041 L 28.3928,489.0482 L 28.8766,489.3387 L 28.8458,489.3935 C 28.6278,489.7816 28.2641,489.9954 27.8217,489.9954 C 27.2535,489.9954 26.6496,489.6311 26.6496,488.958"
               style="fill:#588fd2;fill-opacity:1;fill-rule:nonzero;stroke:none"
               id="path51" />
            <path
               d="M 31.542,486.0897 L 31.073,486.0897 L 31.073,489.4216 L 30.1805,489.4216 L 30.1805,489.8506 L 32.4346,489.8506 L 32.4346,489.4216 L 31.542,489.4216"
               style="fill:#588fd2;fill-opacity:1;fill-rule:nonzero;stroke:none"
               id="path53" />
            <path
               d="M 32.3697,489.7856 C 32.3697,489.7089 32.3697,489.5633 32.3697,489.4866 C 32.2581,489.4866 31.4771,489.4866 31.4771,489.4866 C 31.4771,489.4866 31.4771,486.2798 31.4771,486.1547 C 31.3962,486.1547 31.2189,486.1547 31.138,486.1547 C 31.138,486.2798 31.138,489.4866 31.138,489.4866 C 31.138,489.4866 30.357,489.4866 30.2454,489.4866 C 30.2454,489.5633 30.2454,489.7089 30.2454,489.7856 C 30.3641,489.7856 32.2509,489.7856 32.3697,489.7856 z M 32.4346,489.9156 L 30.1158,489.9156 L 30.1158,489.3566 C 30.1158,489.3566 30.8966,489.3566 31.0082,489.3566 C 31.0082,489.2321 31.0082,486.0252 31.0082,486.0252 L 31.6068,486.0252 C 31.6068,486.0252 31.6068,489.2321 31.6068,489.3566 C 31.7186,489.3566 32.4995,489.3566 32.4995,489.3566 L 32.4995,489.9156"
               style="fill:#588fd2;fill-opacity:1;fill-rule:nonzero;stroke:none"
               id="path55" />
            <path
               d="M 33.8957,486.0897 L 34.3645,486.0897 L 34.3645,489.8507 L 33.8957,489.8507 L 33.8957,486.0897 z"
               style="fill:#588fd2;fill-opacity:1;fill-rule:nonzero;stroke:none"
               id="path57" />
            <path
               d="M 34.2996,489.7856 C 34.2996,489.6629 34.2996,486.2782 34.2996,486.1547 C 34.2189,486.1547 34.0415,486.1547 33.9607,486.1547 C 33.9607,486.2782 33.9607,489.6629 33.9607,489.7856 C 34.0415,489.7856 34.2189,489.7856 34.2996,489.7856 z M 34.3645,489.9156 L 33.8308,489.9156 L 33.8308,486.0252 L 34.4294,486.0252 L 34.4294,489.9156"
               style="fill:#588fd2;fill-opacity:1;fill-rule:nonzero;stroke:none"
               id="path59" />
            <path
               d="M 19.8939,486.0897 L 20.3627,486.0897 L 20.3627,489.8507 L 19.8939,489.8507 L 19.8939,486.0897 z"
               style="fill:#588fd2;fill-opacity:1;fill-rule:nonzero;stroke:none"
               id="path61" />
            <path
               d="M 20.2979,489.7856 C 20.2979,489.6629 20.2979,486.2782 20.2979,486.1547 C 20.217,486.1547 20.0395,486.1547 19.9588,486.1547 C 19.9588,486.2782 19.9588,489.6629 19.9588,489.7856 C 20.0395,489.7856 20.217,489.7856 20.2979,489.7856 z M 20.3627,489.9156 L 19.829,489.9156 L 19.829,486.0252 L 20.4276,486.0252 L 20.4276,489.9156"
               style="fill:#588fd2;fill-opacity:1;fill-rule:nonzero;stroke:none"
               id="path63" />
            <path
               d="M 37.1872,486.0897 L 36.7185,486.0897 L 36.7185,489.4216 L 35.8257,489.4216 L 35.8257,489.8506 L 38.0799,489.8506 L 38.0799,489.4216 L 37.1872,489.4216"
               style="fill:#588fd2;fill-opacity:1;fill-rule:nonzero;stroke:none"
               id="path65" />
            <path
               d="M 38.0151,489.7856 C 38.0151,489.7089 38.0151,489.5633 38.0151,489.4866 C 37.9035,489.4866 37.1222,489.4866 37.1222,489.4866 C 37.1222,489.4866 37.1222,486.2798 37.1222,486.1547 C 37.0414,486.1547 36.8642,486.1547 36.7834,486.1547 C 36.7834,486.2798 36.7834,489.4866 36.7834,489.4866 C 36.7834,489.4866 36.0022,489.4866 35.8906,489.4866 C 35.8906,489.5633 35.8906,489.7089 35.8906,489.7856 C 36.0093,489.7856 37.8964,489.7856 38.0151,489.7856 z M 38.0799,489.9156 L 35.7609,489.9156 L 35.7609,489.3566 C 35.7609,489.3566 36.5419,489.3566 36.6535,489.3566 C 36.6535,489.2321 36.6535,486.0252 36.6535,486.0252 L 37.2522,486.0252 C 37.2522,486.0252 37.2522,489.2321 37.2522,489.3566 C 37.3638,489.3566 38.1448,489.3566 38.1448,489.3566 L 38.1448,489.9156"
               style="fill:#588fd2;fill-opacity:1;fill-rule:nonzero;stroke:none"
               id="path67" />
            <path
               d="M 39.9601,489.8506 L 39.9601,487.631 C 39.9601,487.0181 40.1446,486.4492 40.8677,486.4492 C 41.5906,486.4492 41.7754,487.0181 41.7754,487.631 L 41.7754,489.8506 L 42.2441,489.8506 L 42.2441,487.4716 C 42.2441,486.6443 41.7305,486.0101 40.8677,486.0101 C 40.0048,486.0101 39.4911,486.6443 39.4911,487.4716 L 39.4911,489.8506"
               style="fill:#588fd2;fill-opacity:1;fill-rule:nonzero;stroke:none"
               id="path69" />
            <path
               d="M 42.1793,489.7856 C 42.1793,489.6634 42.1793,487.4716 42.1793,487.4716 C 42.1793,486.6367 41.6523,486.0751 40.8677,486.0751 C 40.0832,486.0751 39.556,486.6367 39.556,487.4716 C 39.556,487.4716 39.556,489.6634 39.556,489.7856 C 39.6369,489.7856 39.8144,489.7856 39.8952,489.7856 C 39.8952,489.6636 39.8952,487.631 39.8952,487.631 C 39.8952,486.8036 40.2225,486.3843 40.8677,486.3843 C 41.513,486.3843 41.8403,486.8036 41.8403,487.631 C 41.8403,487.631 41.8403,489.6636 41.8403,489.7856 C 41.9212,489.7856 42.0984,489.7856 42.1793,489.7856 z M 42.2441,489.9156 L 41.7105,489.9156 L 41.7105,487.631 C 41.7105,486.8798 41.4348,486.5143 40.8677,486.5143 C 40.3007,486.5143 40.0251,486.8798 40.0251,487.631 L 40.0251,489.9156 L 39.4263,489.9156 L 39.4263,487.4716 C 39.4263,486.559 40.0056,485.9456 40.8677,485.9456 C 41.7299,485.9456 42.3091,486.559 42.3091,487.4716 L 42.3091,489.9156"
               style="fill:#588fd2;fill-opacity:1;fill-rule:nonzero;stroke:none"
               id="path71" />
            <path
               d="M 45.0118,486.0897 L 44.5431,486.0897 L 44.5431,489.4216 L 43.6503,489.4216 L 43.6503,489.8506 L 45.9045,489.8506 L 45.9045,489.4216 L 45.0118,489.4216"
               style="fill:#588fd2;fill-opacity:1;fill-rule:nonzero;stroke:none"
               id="path73" />
            <path
               d="M 45.8395,489.7856 C 45.8395,489.7089 45.8395,489.5633 45.8395,489.4866 C 45.728,489.4866 44.9468,489.4866 44.9468,489.4866 C 44.9468,489.4866 44.9468,486.2798 44.9468,486.1547 C 44.866,486.1547 44.6887,486.1547 44.608,486.1547 C 44.608,486.2798 44.608,489.4866 44.608,489.4866 C 44.608,489.4866 43.8268,489.4866 43.7151,489.4866 C 43.7151,489.5633 43.7151,489.7089 43.7151,489.7856 C 43.8341,489.7856 45.7209,489.7856 45.8395,489.7856 z M 45.9045,489.9156 L 43.5854,489.9156 L 43.5854,489.3566 C 43.5854,489.3566 44.3664,489.3566 44.4781,489.3566 C 44.4781,489.2321 44.4781,486.0252 44.4781,486.0252 L 45.0767,486.0252 C 45.0767,486.0252 45.0767,489.2321 45.0767,489.3566 C 45.1883,489.3566 45.9692,489.3566 45.9692,489.3566 L 45.9692,489.9156"
               style="fill:#588fd2;fill-opacity:1;fill-rule:nonzero;stroke:none"
               id="path75" />
            <path
               d="M 20.3536,478.2364 L 20.5182,478.2364 C 21.4757,478.2364 22.3036,478.5959 22.3036,479.6877 C 22.3036,480.7852 21.4757,481.1395 20.5182,481.1395 L 20.3536,481.1395 L 20.3536,478.2364 z M 19.8849,481.5683 L 20.663,481.5683 C 21.8149,481.5683 22.7724,480.9599 22.7724,479.7077 C 22.7724,478.4265 21.8349,477.8079 20.6479,477.8079 L 19.8849,477.8079"
               style="fill:#588fd2;fill-opacity:1;fill-rule:nonzero;stroke:none"
               id="path77" />
            <path
               d="M 20.663,481.5033 C 21.6512,481.5033 22.7076,481.0319 22.7076,479.7077 C 22.7076,478.3547 21.6434,477.8729 20.6479,477.8729 C 20.6479,477.8729 20.0583,477.8729 19.9498,477.8729 C 19.9498,477.9959 19.9498,481.3803 19.9498,481.5033 C 20.0587,481.5033 20.663,481.5033 20.663,481.5033 z M 19.8849,481.6333 L 19.82,481.6333 L 19.82,477.7429 L 20.6479,477.7429 C 21.9985,477.7429 22.8372,478.4953 22.8372,479.7077 C 22.8372,480.8777 21.9838,481.6333 20.663,481.6333"
               style="fill:#588fd2;fill-opacity:1;fill-rule:nonzero;stroke:none"
               id="path79" />
            <path
               d="M 20.5182,481.0746 C 21.3032,481.0746 22.2386,480.834 22.2386,479.6877 C 22.2386,478.5421 21.3032,478.3014 20.5182,478.3014 C 20.5182,478.3014 20.4661,478.3014 20.4185,478.3014 C 20.4185,478.4228 20.4185,480.9534 20.4185,481.0746 C 20.4661,481.0746 20.5182,481.0746 20.5182,481.0746 z M 20.3536,481.204 L 20.2887,481.204 L 20.2887,478.1719 L 20.5182,478.1719 C 21.7114,478.1719 22.3685,478.7104 22.3685,479.6877 C 22.3685,480.6658 21.7114,481.204 20.5182,481.204"
               style="fill:#588fd2;fill-opacity:1;fill-rule:nonzero;stroke:none"
               id="path81" />
            <path
               d="M 24.3378,481.5683 L 26.3577,481.5683 L 26.3577,481.1395 L 24.8066,481.1395 L 24.8066,480.0871 L 26.3128,480.0871 L 26.3128,479.6578 L 24.8066,479.6578 L 24.8066,478.2364 L 26.3577,478.2364 L 26.3577,477.8079 L 24.3378,477.8079"
               style="fill:#588fd2;fill-opacity:1;fill-rule:nonzero;stroke:none"
               id="path83" />
            <path
               d="M 26.2928,481.5033 C 26.2928,481.4266 26.2928,481.2813 26.2928,481.204 C 26.1736,481.204 24.7419,481.204 24.7419,481.204 L 24.7419,480.0221 C 24.7419,480.0221 26.1289,480.0221 26.2479,480.0221 C 26.2479,479.9454 26.2479,479.8 26.2479,479.7228 C 26.1289,479.7228 24.7419,479.7228 24.7419,479.7228 L 24.7419,478.1719 C 24.7419,478.1719 26.1736,478.1719 26.2928,478.1719 C 26.2928,478.0947 26.2928,477.9496 26.2928,477.8729 C 26.1754,477.8729 24.5201,477.8729 24.4026,477.8729 C 24.4026,477.9959 24.4026,481.3803 24.4026,481.5033 C 24.5201,481.5033 26.1754,481.5033 26.2928,481.5033 z M 26.3577,481.6333 L 24.2729,481.6333 L 24.2729,477.7429 L 26.4224,477.7429 L 26.4224,478.3014 C 26.4224,478.3014 24.9905,478.3014 24.8715,478.3014 C 24.8715,478.4142 24.8715,479.4805 24.8715,479.5933 C 24.9903,479.5933 26.3776,479.5933 26.3776,479.5933 L 26.3776,480.1521 C 26.3776,480.1521 24.9903,480.1521 24.8715,480.1521 C 24.8715,480.2587 24.8715,480.968 24.8715,481.0746 C 24.9905,481.0746 26.4224,481.0746 26.4224,481.0746 L 26.4224,481.6333"
               style="fill:#588fd2;fill-opacity:1;fill-rule:nonzero;stroke:none"
               id="path85" />
            <path
               d="M 37.0624,480.7004 L 36.3943,479.1789 L 37.7308,479.1789 L 37.0624,480.7004 z M 36.1999,478.7504 L 35.7709,477.8079 L 35.2672,477.8079 L 37.0624,481.7277 L 38.8579,477.8079 L 38.3544,477.8079 L 37.9254,478.7504"
               style="fill:#588fd2;fill-opacity:1;fill-rule:nonzero;stroke:none"
               id="path87" />
            <path
               d="M 37.0624,481.5717 C 37.1702,481.3372 38.6793,478.0419 38.7568,477.8729 C 38.6412,477.8729 38.4509,477.8729 38.396,477.8729 C 38.3642,477.9428 37.9671,478.8149 37.9671,478.8149 L 36.158,478.8149 C 36.158,478.8149 35.761,477.9428 35.7291,477.8729 C 35.6743,477.8729 35.484,477.8729 35.3683,477.8729 C 35.4458,478.0419 36.9547,481.3372 37.0624,481.5717 z M 37.0034,481.7552 L 35.1661,477.7429 L 35.8126,477.7429 C 35.8126,477.7429 36.2097,478.6152 36.2415,478.6854 C 36.3191,478.6854 37.8061,478.6854 37.8837,478.6854 C 37.9155,478.6152 38.3124,477.7429 38.3124,477.7429 L 38.9591,477.7429 L 37.0624,481.8837"
               style="fill:#588fd2;fill-opacity:1;fill-rule:nonzero;stroke:none"
               id="path89" />
            <path
               d="M 37.0624,480.5389 C 37.1547,480.3291 37.5676,479.3897 37.6315,479.2439 C 37.4749,479.2439 36.6502,479.2439 36.4937,479.2439 C 36.5576,479.3897 36.9704,480.3291 37.0624,480.5389 z M 37.003,480.7261 L 36.2948,479.1144 L 37.8302,479.1144 L 37.0624,480.8619"
               style="fill:#588fd2;fill-opacity:1;fill-rule:nonzero;stroke:none"
               id="path91" />
            <path
               d="M 40.708,478.2364 L 40.8725,478.2364 C 41.83,478.2364 42.6579,478.5959 42.6579,479.6877 C 42.6579,480.7852 41.83,481.1395 40.8725,481.1395 L 40.708,481.1395 L 40.708,478.2364 z M 40.2393,481.5683 L 41.0171,481.5683 C 42.1692,481.5683 43.1268,480.9599 43.1268,479.7077 C 43.1268,478.4265 42.1892,477.8079 41.0023,477.8079 L 40.2393,477.8079"
               style="fill:#588fd2;fill-opacity:1;fill-rule:nonzero;stroke:none"
               id="path93" />
            <path
               d="M 41.0171,481.5033 C 42.0056,481.5033 43.062,481.0319 43.062,479.7077 C 43.062,478.3547 41.998,477.8729 41.0023,477.8729 C 41.0023,477.8729 40.4127,477.8729 40.3042,477.8729 C 40.3042,477.9959 40.3042,481.3803 40.3042,481.5033 C 40.4131,481.5033 41.0171,481.5033 41.0171,481.5033 z M 40.2393,481.6333 L 40.1744,481.6333 L 40.1744,477.7429 L 41.0023,477.7429 C 42.3529,477.7429 43.1916,478.4953 43.1916,479.7077 C 43.1916,480.8777 42.3382,481.6333 41.0171,481.6333"
               style="fill:#588fd2;fill-opacity:1;fill-rule:nonzero;stroke:none"
               id="path95" />
            <path
               d="M 40.8725,481.0746 C 41.6575,481.0746 42.5931,480.834 42.5931,479.6877 C 42.5931,478.5421 41.6575,478.3014 40.8725,478.3014 C 40.8725,478.3014 40.8206,478.3014 40.7729,478.3014 C 40.7729,478.4228 40.7729,480.9534 40.7729,481.0746 C 40.8206,481.0746 40.8725,481.0746 40.8725,481.0746 z M 40.708,481.204 L 40.6431,481.204 L 40.6431,478.1719 L 40.8725,478.1719 C 42.0656,478.1719 42.7227,478.7104 42.7227,479.6877 C 42.7227,480.6658 42.0656,481.204 40.8725,481.204"
               style="fill:#588fd2;fill-opacity:1;fill-rule:nonzero;stroke:none"
               id="path97" />
            <path
               d="M 44.6876,477.8079 L 45.1565,477.8079 L 45.1565,481.5683 L 44.6876,481.5683 L 44.6876,477.8079 z"
               style="fill:#588fd2;fill-opacity:1;fill-rule:nonzero;stroke:none"
               id="path99" />
            <path
               d="M 45.0915,481.5033 C 45.0915,481.3803 45.0915,477.9959 45.0915,477.8729 C 45.0107,477.8729 44.8333,477.8729 44.7524,477.8729 C 44.7524,477.9959 44.7524,481.3803 44.7524,481.5033 C 44.8333,481.5033 45.0107,481.5033 45.0915,481.5033 z M 45.1564,481.6333 L 44.6228,481.6333 L 44.6228,477.7429 L 45.2213,477.7429 L 45.2213,481.6333"
               style="fill:#588fd2;fill-opacity:1;fill-rule:nonzero;stroke:none"
               id="path101" />
            <path
               d="M 50.1734,479.6877 C 50.1734,480.5155 49.5549,481.2092 48.6725,481.2092 C 47.7895,481.2092 47.1712,480.5155 47.1712,479.6877 C 47.1712,478.8302 47.8594,478.167 48.6725,478.167 C 49.4852,478.167 50.1734,478.8302 50.1734,479.6877 z M 50.6422,479.6877 C 50.6422,478.5705 49.7593,477.7281 48.6725,477.7281 C 47.5851,477.7281 46.7027,478.5705 46.7027,479.6877 C 46.7027,480.7654 47.5953,481.6478 48.6725,481.6478 C 49.7496,481.6478 50.6422,480.7654 50.6422,479.6877"
               style="fill:#588fd2;fill-opacity:1;fill-rule:nonzero;stroke:none"
               id="path103" />
            <path
               d="M 46.7674,479.6877 C 46.7674,480.7329 47.6218,481.5829 48.6725,481.5829 C 49.7229,481.5829 50.5775,480.7329 50.5775,479.6877 C 50.5775,478.6253 49.7408,477.7931 48.6725,477.7931 C 47.6041,477.7931 46.7674,478.6253 46.7674,479.6877 z M 46.6377,479.6877 C 46.6377,478.5523 47.5316,477.6636 48.6725,477.6636 C 49.8133,477.6636 50.7072,478.5523 50.7072,479.6877 C 50.7072,480.8049 49.7944,481.7128 48.6725,481.7128 C 47.5503,481.7128 46.6377,480.8049 46.6377,479.6877"
               style="fill:#588fd2;fill-opacity:1;fill-rule:nonzero;stroke:none"
               id="path105" />
            <path
               d="M 47.236,479.6877 C 47.236,480.5181 47.8535,481.1442 48.6725,481.1442 C 49.4912,481.1442 50.1087,480.5181 50.1087,479.6877 C 50.1087,478.8848 49.4642,478.2314 48.6725,478.2314 C 47.8802,478.2314 47.236,478.8848 47.236,479.6877 z M 47.1062,479.6877 C 47.1062,478.8133 47.8087,478.102 48.6725,478.102 C 49.5359,478.102 50.2382,478.8133 50.2382,479.6877 C 50.2382,480.5923 49.565,481.2742 48.6725,481.2742 C 47.7796,481.2742 47.1062,480.5923 47.1062,479.6877"
               style="fill:#588fd2;fill-opacity:1;fill-rule:nonzero;stroke:none"
               id="path107" />
            <path
               d="M 52.6718,479.8026 L 52.8215,479.8026 C 53.3002,479.8026 53.8189,479.8923 53.8189,480.4906 C 53.8189,481.0792 53.2602,481.1492 52.7966,481.1492 L 52.6718,481.1492 L 52.6718,479.8026 z M 52.6718,477.8079 L 52.203,477.8079 L 52.203,481.5683 L 52.7417,481.5683 C 53.8985,481.5683 54.2575,481.1692 54.2575,480.4804 C 54.2575,479.6877 53.6541,479.384 52.9411,479.384 L 52.6718,479.384"
               style="fill:#588fd2;fill-opacity:1;fill-rule:nonzero;stroke:none"
               id="path109" />
            <path
               d="M 52.7417,481.5033 C 54.0168,481.5033 54.1928,481.0121 54.1928,480.4804 C 54.1928,479.5491 53.3174,479.4485 52.9411,479.4485 L 52.607,479.4485 C 52.607,479.4485 52.607,477.9922 52.607,477.8729 C 52.5259,477.8729 52.3486,477.8729 52.2677,477.8729 C 52.2677,477.9959 52.2677,481.3803 52.2677,481.5033 C 52.3684,481.5033 52.7417,481.5033 52.7417,481.5033 z M 52.203,481.6333 L 52.1383,481.6333 L 52.1383,477.7429 L 52.7368,477.7429 C 52.7368,477.7429 52.7368,479.1997 52.7368,479.319 C 52.8114,479.319 52.9411,479.319 52.9411,479.319 C 53.8189,479.319 54.3225,479.7426 54.3225,480.4804 C 54.3225,481.2779 53.835,481.6333 52.7417,481.6333"
               style="fill:#588fd2;fill-opacity:1;fill-rule:nonzero;stroke:none"
               id="path111" />
            <path
               d="M 52.7966,481.0842 C 53.4676,481.0842 53.7542,480.9071 53.7542,480.4906 C 53.7542,480.054 53.4752,479.8676 52.8215,479.8676 C 52.8215,479.8676 52.7784,479.8676 52.7368,479.8676 C 52.7368,479.9792 52.7368,480.9731 52.7368,481.0842 C 52.7667,481.0842 52.7966,481.0842 52.7966,481.0842 z M 52.6718,481.2142 L 52.607,481.2142 L 52.607,479.7382 L 52.8215,479.7382 C 53.2776,479.7382 53.8839,479.8159 53.8839,480.4906 C 53.8839,481.2142 53.094,481.2142 52.7966,481.2142"
               style="fill:#588fd2;fill-opacity:1;fill-rule:nonzero;stroke:none"
               id="path113" />
            <path
               d="M 56.2473,479.7878 L 56.3973,479.7878 C 56.8755,479.7878 57.3947,479.8778 57.3947,480.4755 C 57.3947,481.0644 56.8359,481.1492 56.3724,481.1492 L 56.2473,481.1492 L 56.2473,479.7878 z M 58.1177,477.8079 L 57.5489,477.8079 L 56.442,479.3988 L 56.2473,479.3988 L 56.2473,477.8079 L 55.7788,477.8079 L 55.7788,481.5683 L 56.3469,481.5683 C 56.681,481.5683 57.0406,481.5631 57.3398,481.3936 C 57.6542,481.2092 57.8333,480.8553 57.8333,480.4958 C 57.8333,479.9573 57.4742,479.5086 56.9303,479.4436"
               style="fill:#588fd2;fill-opacity:1;fill-rule:nonzero;stroke:none"
               id="path115" />
            <path
               d="M 56.3469,481.5033 C 56.6446,481.5033 57.0143,481.5033 57.3078,481.3366 C 57.5915,481.1705 57.7683,480.8481 57.7683,480.4958 C 57.7683,479.9737 57.4209,479.5673 56.9228,479.5081 L 56.8131,479.4948 C 56.8131,479.4948 57.8598,478.0536 57.9909,477.8729 C 57.8492,477.8729 57.6287,477.8729 57.5829,477.8729 C 57.5455,477.9267 56.4758,479.4638 56.4758,479.4638 L 56.1823,479.4638 C 56.1823,479.4638 56.1823,477.9922 56.1823,477.8729 C 56.1017,477.8729 55.9239,477.8729 55.8433,477.8729 C 55.8433,477.9959 55.8433,481.3803 55.8433,481.5033 C 55.9452,481.5033 56.3469,481.5033 56.3469,481.5033 z M 55.7788,481.6333 L 55.7138,481.6333 L 55.7138,477.7429 L 56.3123,477.7429 C 56.3123,477.7429 56.3123,479.2145 56.3123,479.3338 C 56.3552,479.3338 56.3804,479.3338 56.408,479.3338 C 56.4454,479.28 57.5153,477.7429 57.5153,477.7429 L 58.2451,477.7429 C 58.2451,477.7429 57.1321,479.2769 57.0356,479.409 C 57.5444,479.5177 57.8983,479.9433 57.8983,480.4958 C 57.8983,480.8943 57.6968,481.2594 57.3728,481.4495 C 57.0489,481.6333 56.6597,481.6333 56.3469,481.6333"
               style="fill:#588fd2;fill-opacity:1;fill-rule:nonzero;stroke:none"
               id="path117" />
            <path
               d="M 56.3724,481.0842 C 57.0346,481.0842 57.3302,480.897 57.3302,480.4755 C 57.3302,480.0392 57.0507,479.8528 56.3973,479.8528 C 56.3973,479.8528 56.3542,479.8528 56.3123,479.8528 C 56.3123,479.9646 56.3123,480.9726 56.3123,481.0842 C 56.3425,481.0842 56.3724,481.0842 56.3724,481.0842 z M 56.2473,481.2142 L 56.1823,481.2142 L 56.1823,479.7228 L 56.3973,479.7228 C 56.8534,479.7228 57.4597,479.8011 57.4597,480.4755 C 57.4597,481.2142 56.6409,481.2142 56.3724,481.2142"
               style="fill:#588fd2;fill-opacity:1;fill-rule:nonzero;stroke:none"
               id="path119" />
            <path
               d="M 32.4129,479.7878 L 32.5626,479.7878 C 33.0413,479.7878 33.5602,479.8778 33.5602,480.4755 C 33.5602,481.0644 33.0013,481.1492 32.5378,481.1492 L 32.4129,481.1492 L 32.4129,479.7878 z M 34.2835,477.8079 L 33.7145,477.8079 L 32.6075,479.3988 L 32.4129,479.3988 L 32.4129,477.8079 L 31.944,477.8079 L 31.944,481.5683 L 32.5125,481.5683 C 32.8468,481.5683 33.206,481.5631 33.5053,481.3936 C 33.8194,481.2092 33.9988,480.8553 33.9988,480.4958 C 33.9988,479.9573 33.6399,479.5086 33.0963,479.4436"
               style="fill:#588fd2;fill-opacity:1;fill-rule:nonzero;stroke:none"
               id="path121" />
            <path
               d="M 32.5125,481.5033 C 32.81,481.5033 33.1798,481.5033 33.4732,481.3366 C 33.757,481.1705 33.9339,480.8481 33.9339,480.4958 C 33.9339,479.9737 33.5862,479.5673 33.0885,479.5081 L 32.9788,479.4948 C 32.9788,479.4948 34.0249,478.0536 34.1562,477.8729 C 34.0145,477.8729 33.7941,477.8729 33.7484,477.8729 C 33.711,477.9267 32.6413,479.4638 32.6413,479.4638 L 32.348,479.4638 C 32.348,479.4638 32.348,477.9922 32.348,477.8729 C 32.2672,477.8729 32.0898,477.8729 32.009,477.8729 C 32.009,477.9959 32.009,481.3803 32.009,481.5033 C 32.1109,481.5033 32.5125,481.5033 32.5125,481.5033 z M 31.944,481.6333 L 31.8791,481.6333 L 31.8791,477.7429 L 32.4777,477.7429 C 32.4777,477.7429 32.4777,479.2145 32.4777,479.3338 C 32.5203,479.3338 32.546,479.3338 32.5736,479.3338 C 32.6109,479.28 33.6806,477.7429 33.6806,477.7429 L 34.4107,477.7429 C 34.4107,477.7429 33.2972,479.2769 33.2012,479.409 C 33.7101,479.5177 34.0635,479.9433 34.0635,480.4958 C 34.0635,480.8943 33.8622,481.2594 33.538,481.4495 C 33.2142,481.6333 32.8252,481.6333 32.5125,481.6333"
               style="fill:#588fd2;fill-opacity:1;fill-rule:nonzero;stroke:none"
               id="path123" />
            <path
               d="M 32.5378,481.0842 C 33.1998,481.0842 33.4953,480.897 33.4953,480.4755 C 33.4953,480.0392 33.2162,479.8528 32.5626,479.8528 C 32.5626,479.8528 32.5194,479.8528 32.4777,479.8528 C 32.4777,479.9646 32.4777,480.9726 32.4777,481.0842 C 32.5077,481.0842 32.5378,481.0842 32.5378,481.0842 z M 32.4129,481.2142 L 32.348,481.2142 L 32.348,479.7228 L 32.5626,479.7228 C 33.0187,479.7228 33.625,479.8011 33.625,480.4755 C 33.625,481.2142 32.8068,481.2142 32.5378,481.2142"
               style="fill:#588fd2;fill-opacity:1;fill-rule:nonzero;stroke:none"
               id="path125" />
            <path
               d="M 62.8003,479.6877 C 62.8003,480.5155 62.1818,481.2092 61.2991,481.2092 C 60.4167,481.2092 59.7981,480.5155 59.7981,479.6877 C 59.7981,478.8302 60.4866,478.167 61.2991,478.167 C 62.1121,478.167 62.8003,478.8302 62.8003,479.6877 z M 63.2689,479.6877 C 63.2689,478.5705 62.3864,477.7281 61.2991,477.7281 C 60.2123,477.7281 59.3299,478.5705 59.3299,479.6877 C 59.3299,480.7654 60.2222,481.6478 61.2991,481.6478 C 62.3768,481.6478 63.2689,480.7654 63.2689,479.6877"
               style="fill:#588fd2;fill-opacity:1;fill-rule:nonzero;stroke:none"
               id="path127" />
            <path
               d="M 59.3943,479.6877 C 59.3943,480.7329 60.249,481.5829 61.2991,481.5829 C 62.3498,481.5829 63.2044,480.7329 63.2044,479.6877 C 63.2044,478.6253 62.3677,477.7931 61.2991,477.7931 C 60.2313,477.7931 59.3943,478.6253 59.3943,479.6877 z M 59.2643,479.6877 C 59.2643,478.5523 60.1585,477.6636 61.2991,477.6636 C 62.4408,477.6636 63.3344,478.5523 63.3344,479.6877 C 63.3344,480.8049 62.4215,481.7128 61.2991,481.7128 C 60.1775,481.7128 59.2643,480.8049 59.2643,479.6877"
               style="fill:#588fd2;fill-opacity:1;fill-rule:nonzero;stroke:none"
               id="path129" />
            <path
               d="M 59.8631,479.6877 C 59.8631,480.5181 60.4806,481.1442 61.2991,481.1442 C 62.1184,481.1442 62.7359,480.5181 62.7359,479.6877 C 62.7359,478.8848 62.0913,478.2314 61.2991,478.2314 C 60.5074,478.2314 59.8631,478.8848 59.8631,479.6877 z M 59.7336,479.6877 C 59.7336,478.8133 60.4359,478.102 61.2991,478.102 C 62.1623,478.102 62.8653,478.8133 62.8653,479.6877 C 62.8653,480.5923 62.1919,481.2742 61.2991,481.2742 C 60.407,481.2742 59.7336,480.5923 59.7336,479.6877"
               style="fill:#588fd2;fill-opacity:1;fill-rule:nonzero;stroke:none"
               id="path131" />
            <path
               d="M 65.8426,477.8079 L 65.3738,477.8079 L 65.3738,481.1395 L 64.4805,481.1395 L 64.4805,481.5683 L 66.7352,481.5683 L 66.7352,481.1395 L 65.8426,481.1395"
               style="fill:#588fd2;fill-opacity:1;fill-rule:nonzero;stroke:none"
               id="path133" />
            <path
               d="M 66.6702,481.5033 C 66.6702,481.4266 66.6702,481.2813 66.6702,481.204 C 66.5592,481.204 65.7776,481.204 65.7776,481.204 C 65.7776,481.204 65.7776,477.9972 65.7776,477.8729 C 65.6967,477.8729 65.5202,477.8729 65.4388,477.8729 C 65.4388,477.9972 65.4388,481.204 65.4388,481.204 C 65.4388,481.204 64.6573,481.204 64.5455,481.204 C 64.5455,481.2813 64.5455,481.4266 64.5455,481.5033 C 64.6646,481.5033 66.5519,481.5033 66.6702,481.5033 z M 66.7352,481.6333 L 64.4155,481.6333 L 64.4155,481.0746 C 64.4155,481.0746 65.1975,481.0746 65.3093,481.0746 C 65.3093,480.9497 65.3093,477.7429 65.3093,477.7429 L 65.9076,477.7429 C 65.9076,477.7429 65.9076,480.9497 65.9076,481.0746 C 66.0189,481.0746 66.8002,481.0746 66.8002,481.0746 L 66.8002,481.6333"
               style="fill:#588fd2;fill-opacity:1;fill-rule:nonzero;stroke:none"
               id="path135" />
            <path
               d="M 68.2115,481.5683 L 70.2311,481.5683 L 70.2311,481.1395 L 68.6797,481.1395 L 68.6797,480.0871 L 70.1859,480.0871 L 70.1859,479.6578 L 68.6797,479.6578 L 68.6797,478.2364 L 70.2311,478.2364 L 70.2311,477.8079 L 68.2115,477.8079"
               style="fill:#588fd2;fill-opacity:1;fill-rule:nonzero;stroke:none"
               id="path137" />
            <path
               d="M 70.1662,481.5033 C 70.1662,481.4266 70.1662,481.2813 70.1662,481.204 C 70.0468,481.204 68.6147,481.204 68.6147,481.204 L 68.6147,480.0221 C 68.6147,480.0221 70.0026,480.0221 70.1214,480.0221 C 70.1214,479.9454 70.1214,479.8 70.1214,479.7228 C 70.0026,479.7228 68.6147,479.7228 68.6147,479.7228 L 68.6147,478.1719 C 68.6147,478.1719 70.0468,478.1719 70.1662,478.1719 C 70.1662,478.0947 70.1662,477.9496 70.1662,477.8729 C 70.0484,477.8729 68.3937,477.8729 68.2765,477.8729 C 68.2765,477.9959 68.2765,481.3803 68.2765,481.5033 C 68.3937,481.5033 70.0484,481.5033 70.1662,481.5033 z M 70.2311,481.6333 L 68.1465,481.6333 L 68.1465,477.7429 L 70.2961,477.7429 L 70.2961,478.3014 C 70.2961,478.3014 68.8635,478.3014 68.7447,478.3014 C 68.7447,478.4142 68.7447,479.4805 68.7447,479.5933 C 68.8635,479.5933 70.2509,479.5933 70.2509,479.5933 L 70.2509,480.1521 C 70.2509,480.1521 68.8635,480.1521 68.7447,480.1521 C 68.7447,480.2587 68.7447,480.968 68.7447,481.0746 C 68.8635,481.0746 70.2961,481.0746 70.2961,481.0746 L 70.2961,481.6333"
               style="fill:#588fd2;fill-opacity:1;fill-rule:nonzero;stroke:none"
               id="path139" />
            <path
               d="M 74.6545,480.8502 C 74.3854,481.0894 74.0157,481.2188 73.6624,481.2188 C 72.8189,481.2188 72.1754,480.5155 72.1754,479.6828 C 72.1754,478.8601 72.8142,478.1568 73.6527,478.1568 C 74.0209,478.1568 74.3753,478.2964 74.6545,478.5463 L 74.6545,477.9922 C 74.3651,477.823 73.9959,477.7281 73.6673,477.7281 C 72.5945,477.7281 71.7072,478.5809 71.7072,479.6679 C 71.7072,480.7805 72.6,481.6478 73.7076,481.6478 C 74.036,481.6478 74.3703,481.5683 74.6545,481.3936"
               style="fill:#588fd2;fill-opacity:1;fill-rule:nonzero;stroke:none"
               id="path141" />
            <path
               d="M 71.7722,479.6679 C 71.7722,480.742 72.6224,481.5829 73.7076,481.5829 C 74.0321,481.5829 74.3347,481.5007 74.5895,481.3514 C 74.5895,481.2961 74.5895,481.0904 74.5895,480.963 C 74.3261,481.1591 74.0011,481.2838 73.6624,481.2838 C 72.8067,481.2838 72.1104,480.5657 72.1104,479.6828 C 72.1104,478.8058 72.802,478.0918 73.6527,478.0918 C 73.9915,478.0918 74.315,478.2218 74.5895,478.4314 C 74.5895,478.3014 74.5895,478.0918 74.5895,478.0354 C 74.3204,477.8857 73.9803,477.7931 73.6673,477.7931 C 72.6224,477.7931 71.7722,478.6347 71.7722,479.6679 z M 71.6422,479.6679 C 71.6422,478.5624 72.5509,477.6636 73.6673,477.6636 C 74.0139,477.6636 74.3951,477.7658 74.6875,477.9363 L 74.7195,477.9551 L 74.7195,478.6914 L 74.6114,478.5949 C 74.3428,478.3542 74.0022,478.2218 73.6527,478.2218 C 72.8738,478.2218 72.2404,478.8773 72.2404,479.6828 C 72.2404,480.4937 72.8782,481.1544 73.6624,481.1544 C 74.0076,481.1544 74.3631,481.0223 74.6114,480.8021 L 74.7195,480.7054 L 74.7195,481.4297 L 74.6886,481.4484 C 74.4078,481.6216 74.068,481.7128 73.7076,481.7128 C 72.5493,481.7128 71.6422,480.8151 71.6422,479.6679"
               style="fill:#588fd2;fill-opacity:1;fill-rule:nonzero;stroke:none"
               id="path143" />
            <path
               d="M 77.3323,477.8079 L 76.864,477.8079 L 76.864,481.1395 L 75.9709,481.1395 L 75.9709,481.5683 L 78.2251,481.5683 L 78.2251,481.1395 L 77.3323,481.1395"
               style="fill:#588fd2;fill-opacity:1;fill-rule:nonzero;stroke:none"
               id="path145" />
            <path
               d="M 78.1601,481.5033 C 78.1601,481.4266 78.1601,481.2813 78.1601,481.204 C 78.0483,481.204 77.2673,481.204 77.2673,481.204 C 77.2673,481.204 77.2673,477.9972 77.2673,477.8729 C 77.1872,477.8729 77.0093,477.8729 76.929,477.8729 C 76.929,477.9972 76.929,481.204 76.929,481.204 C 76.929,481.204 76.1472,481.204 76.0354,481.204 C 76.0354,481.2813 76.0354,481.4266 76.0354,481.5033 C 76.1547,481.5033 78.0408,481.5033 78.1601,481.5033 z M 78.2251,481.6333 L 75.9059,481.6333 L 75.9059,481.0746 C 75.9059,481.0746 76.688,481.0746 76.799,481.0746 C 76.799,480.9497 76.799,477.7429 76.799,477.7429 L 77.3973,477.7429 C 77.3973,477.7429 77.3973,480.9497 77.3973,481.0746 C 77.5085,481.0746 78.2901,481.0746 78.2901,481.0746 L 78.2901,481.6333"
               style="fill:#588fd2;fill-opacity:1;fill-rule:nonzero;stroke:none"
               id="path147" />
            <path
               d="M 79.686,477.8079 L 80.1558,477.8079 L 80.1558,481.5683 L 79.686,481.5683 L 79.686,477.8079 z"
               style="fill:#588fd2;fill-opacity:1;fill-rule:nonzero;stroke:none"
               id="path149" />
            <path
               d="M 80.0909,481.5033 C 80.0909,481.3803 80.0909,477.9959 80.0909,477.8729 C 80.01,477.8729 79.8316,477.8729 79.751,477.8729 C 79.751,477.9959 79.751,481.3803 79.751,481.5033 C 79.8316,481.5033 80.01,481.5033 80.0909,481.5033 z M 80.1559,481.6333 L 79.621,481.6333 L 79.621,477.7429 L 80.2204,477.7429 L 80.2204,481.6333"
               style="fill:#588fd2;fill-opacity:1;fill-rule:nonzero;stroke:none"
               id="path151" />
            <path
               d="M 85.1723,479.6877 C 85.1723,480.5155 84.554,481.2092 83.6708,481.2092 C 82.7889,481.2092 82.1698,480.5155 82.1698,479.6877 C 82.1698,478.8302 82.8583,478.167 83.6708,478.167 C 84.4843,478.167 85.1723,478.8302 85.1723,479.6877 z M 85.6411,479.6877 C 85.6411,478.5705 84.7581,477.7281 83.6708,477.7281 C 82.5835,477.7281 81.701,478.5705 81.701,479.6877 C 81.701,480.7654 82.5939,481.6478 83.6708,481.6478 C 84.7485,481.6478 85.6411,480.7654 85.6411,479.6877"
               style="fill:#588fd2;fill-opacity:1;fill-rule:nonzero;stroke:none"
               id="path153" />
            <path
               d="M 81.766,479.6877 C 81.766,480.7329 82.6207,481.5829 83.6708,481.5829 C 84.7215,481.5829 85.5761,480.7329 85.5761,479.6877 C 85.5761,478.6253 84.7391,477.7931 83.6708,477.7931 C 82.603,477.7931 81.766,478.6253 81.766,479.6877 z M 81.636,479.6877 C 81.636,478.5523 82.5302,477.6636 83.6708,477.6636 C 84.8125,477.6636 85.7061,478.5523 85.7061,479.6877 C 85.7061,480.8049 84.793,481.7128 83.6708,481.7128 C 82.5497,481.7128 81.636,480.8049 81.636,479.6877"
               style="fill:#588fd2;fill-opacity:1;fill-rule:nonzero;stroke:none"
               id="path155" />
            <path
               d="M 82.2348,479.6877 C 82.2348,480.5181 82.8523,481.1442 83.6708,481.1442 C 84.4903,481.1442 85.1073,480.5181 85.1073,479.6877 C 85.1073,478.8848 84.4635,478.2314 83.6708,478.2314 C 82.8791,478.2314 82.2348,478.8848 82.2348,479.6877 z M 82.1048,479.6877 C 82.1048,478.8133 82.8076,478.102 83.6708,478.102 C 84.535,478.102 85.2373,478.8133 85.2373,479.6877 C 85.2373,480.5923 84.5647,481.2742 83.6708,481.2742 C 82.7785,481.2742 82.1048,480.5923 82.1048,479.6877"
               style="fill:#588fd2;fill-opacity:1;fill-rule:nonzero;stroke:none"
               id="path157" />
            <path
               d="M 87.1759,481.7474 L 89.9982,478.791 L 89.9982,481.5683 L 90.4664,481.5683 L 90.4664,477.6535 L 87.6439,480.6104 L 87.6439,477.8079 L 87.1759,477.8079"
               style="fill:#588fd2;fill-opacity:1;fill-rule:nonzero;stroke:none"
               id="path159" />
            <path
               d="M 87.2403,481.5854 C 87.447,481.3696 90.0632,478.629 90.0632,478.629 C 90.0632,478.629 90.0632,481.3798 90.0632,481.5033 C 90.1445,481.5033 90.3211,481.5033 90.4019,481.5033 C 90.4019,481.3834 90.4019,478.1079 90.4019,477.8154 C 90.1958,478.0318 87.5789,480.7724 87.5789,480.7724 C 87.5789,480.7724 87.5789,477.9967 87.5789,477.8729 C 87.4983,477.8729 87.3209,477.8729 87.2403,477.8729 C 87.2403,477.9933 87.2403,481.2929 87.2403,481.5854 z M 87.1109,481.7474 L 87.1109,477.7429 L 87.7083,477.7429 C 87.7083,477.7429 87.7083,480.1612 87.7083,480.4485 C 87.915,480.2321 90.5314,477.491 90.5314,477.491 L 90.5314,481.6333 L 89.9332,481.6333 C 89.9332,481.6333 89.9332,479.24 89.9332,478.9524 C 89.7265,479.1687 87.1109,481.9094 87.1109,481.9094"
               style="fill:#588fd2;fill-opacity:1;fill-rule:nonzero;stroke:none"
               id="path161" />
            <path
               d="M 39.0947,472.5343 C 38.9549,472.7688 38.7755,472.8887 38.4913,472.8887 C 38.1919,472.8887 37.8628,472.6841 37.8628,472.3544 C 37.8628,472.0609 38.1522,471.9062 38.3865,471.8162 L 38.6557,471.7117 C 39.1894,471.5019 39.5884,471.2078 39.5884,470.5791 C 39.5884,469.8966 39.0597,469.407 38.3865,469.407 C 37.778,469.407 37.3044,469.8566 37.2245,470.4598 L 37.6982,470.5599 C 37.6932,470.1454 38.0226,469.8464 38.4264,469.8464 C 38.8303,469.8464 39.1197,470.1855 39.1197,470.5791 C 39.1197,470.9834 38.7954,471.1581 38.4713,471.2926 L 38.2121,471.4023 C 37.783,471.5866 37.3941,471.8315 37.3941,472.3544 C 37.3941,472.9633 37.9328,473.3273 38.5012,473.3273 C 38.9201,473.3273 39.264,473.1227 39.4689,472.7587"
               style="fill:#588fd2;fill-opacity:1;fill-rule:nonzero;stroke:none"
               id="path163" />
            <path
               d="M 39.1845,470.5791 C 39.1845,471.0079 38.8536,471.2042 38.4961,471.3526 L 38.2373,471.4623 C 37.8332,471.6355 37.459,471.8646 37.459,472.3544 C 37.459,472.9441 37.996,473.2623 38.5012,473.2623 C 38.8729,473.2623 39.1779,473.0879 39.3746,472.778 C 39.3011,472.7337 39.1598,472.649 39.1046,472.616 C 38.9516,472.8385 38.7636,472.9532 38.4913,472.9532 C 38.1579,472.9532 37.798,472.7246 37.798,472.3544 C 37.798,471.9727 38.2235,471.8092 38.3633,471.7559 L 38.6323,471.6511 C 39.265,471.4023 39.5235,471.0921 39.5235,470.5791 C 39.5235,469.9484 39.0346,469.472 38.3865,469.472 C 37.8381,469.472 37.4068,469.8576 37.3066,470.4112 C 37.3908,470.4288 37.5655,470.4655 37.6463,470.4827 C 37.6619,470.3058 37.726,470.14 37.8493,470.0154 C 37.9984,469.8647 38.2033,469.7814 38.4264,469.7814 C 38.8514,469.7814 39.1845,470.1317 39.1845,470.5791 z M 37.3293,472.3544 C 37.3293,471.7879 37.7626,471.5247 38.1864,471.343 C 38.1867,471.3425 38.4459,471.2328 38.4459,471.2328 C 38.822,471.0768 39.0548,470.9132 39.0548,470.5791 C 39.0548,470.2045 38.7787,469.9114 38.4264,469.9114 C 38.2383,469.9114 38.0662,469.9803 37.9417,470.1064 C 37.8244,470.2253 37.761,470.3862 37.7631,470.5588 L 37.7641,470.6402 L 37.1523,470.511 L 37.1602,470.4512 C 37.2452,469.8087 37.7608,469.3426 38.3865,469.3426 C 39.1086,469.3426 39.6532,469.8743 39.6532,470.5791 C 39.6532,471.2931 39.1609,471.5827 38.6794,471.772 C 38.6792,471.7725 38.41,471.8765 38.41,471.8765 C 38.0854,472.0011 37.9278,472.1573 37.9278,472.3544 C 37.9278,472.6446 38.2202,472.8237 38.4913,472.8237 C 38.7403,472.8237 38.9041,472.7272 39.0389,472.5013 L 39.0723,472.4454 L 39.5563,472.7353 L 39.5254,472.7902 C 39.3073,473.1781 38.9437,473.3923 38.5012,473.3923 C 37.9332,473.3923 37.3293,473.0283 37.3293,472.3544"
               style="fill:#588fd2;fill-opacity:1;fill-rule:nonzero;stroke:none"
               id="path165" />
            <path
               d="M 19.8862,473.2504 L 21.9057,473.2504 L 21.9057,472.8211 L 20.3549,472.8211 L 20.3549,471.7689 L 21.861,471.7689 L 21.861,471.3409 L 20.3549,471.3409 L 20.3549,469.9195 L 21.9057,469.9195 L 21.9057,469.49 L 19.8862,469.49"
               style="fill:#588fd2;fill-opacity:1;fill-rule:nonzero;stroke:none"
               id="path167" />
            <path
               d="M 21.8408,473.1854 C 21.8408,473.1087 21.8408,472.9628 21.8408,472.8861 C 21.7216,472.8861 20.29,472.8861 20.29,472.8861 L 20.29,471.7039 C 20.29,471.7039 21.6771,471.7039 21.7962,471.7039 C 21.7962,471.6272 21.7962,471.4826 21.7962,471.4054 C 21.6771,471.4054 20.29,471.4054 20.29,471.4054 L 20.29,469.8545 C 20.29,469.8545 21.7216,469.8545 21.8408,469.8545 C 21.8408,469.7778 21.8408,469.6317 21.8408,469.555 C 21.7233,469.555 20.0685,469.555 19.951,469.555 C 19.951,469.6782 19.951,473.0619 19.951,473.1854 C 20.0685,473.1854 21.7233,473.1854 21.8408,473.1854 z M 21.9057,473.3154 L 19.8213,473.3154 L 19.8213,469.4255 L 21.9706,469.4255 L 21.9706,469.984 C 21.9706,469.984 20.5388,469.984 20.4197,469.984 C 20.4197,470.0968 20.4197,471.1631 20.4197,471.2759 C 20.5386,471.2759 21.9259,471.2759 21.9259,471.2759 L 21.9259,471.8339 C 21.9259,471.8339 20.5386,471.8339 20.4197,471.8339 C 20.4197,471.9405 20.4197,472.6495 20.4197,472.7561 C 20.5388,472.7561 21.9706,472.7561 21.9706,472.7561 L 21.9706,473.3154"
               style="fill:#588fd2;fill-opacity:1;fill-rule:nonzero;stroke:none"
               id="path169" />
            <path
               d="M 24.2357,469.49 L 23.767,469.49 L 23.767,472.8211 L 22.8744,472.8211 L 22.8744,473.2504 L 25.1284,473.2504 L 25.1284,472.8211 L 24.2357,472.8211"
               style="fill:#588fd2;fill-opacity:1;fill-rule:nonzero;stroke:none"
               id="path171" />
            <path
               d="M 25.0636,473.1854 C 25.0636,473.1087 25.0636,472.9628 25.0636,472.8861 C 24.9518,472.8861 24.1708,472.8861 24.1708,472.8861 C 24.1708,472.8861 24.1708,469.6798 24.1708,469.555 C 24.09,469.555 23.9127,469.555 23.8319,469.555 C 23.8319,469.6798 23.8319,472.8861 23.8319,472.8861 C 23.8319,472.8861 23.0508,472.8861 22.9393,472.8861 C 22.9393,472.9628 22.9393,473.1087 22.9393,473.1854 C 23.0579,473.1854 24.9447,473.1854 25.0636,473.1854 z M 25.1284,473.3154 L 22.8094,473.3154 L 22.8094,472.7561 C 22.8094,472.7561 23.5905,472.7561 23.7021,472.7561 C 23.7021,472.6318 23.7021,469.4255 23.7021,469.4255 L 24.3006,469.4255 C 24.3006,469.4255 24.3006,472.6318 24.3006,472.7561 C 24.4122,472.7561 25.1933,472.7561 25.1933,472.7561 L 25.1933,473.3154"
               style="fill:#588fd2;fill-opacity:1;fill-rule:nonzero;stroke:none"
               id="path173" />
            <path
               d="M 28.348,469.9195 L 28.5124,469.9195 C 29.4698,469.9195 30.2978,470.278 30.2978,471.3703 C 30.2978,472.4673 29.4698,472.8211 28.5124,472.8211 L 28.348,472.8211 L 28.348,469.9195 z M 27.8791,473.2504 L 28.6571,473.2504 C 29.8092,473.2504 30.7667,472.642 30.7667,471.3901 C 30.7667,470.1085 29.829,469.49 28.6421,469.49 L 27.8791,469.49"
               style="fill:#588fd2;fill-opacity:1;fill-rule:nonzero;stroke:none"
               id="path175" />
            <path
               d="M 28.6571,473.1854 C 29.6454,473.1854 30.7018,472.7135 30.7018,471.3901 C 30.7018,470.0373 29.6378,469.555 28.6421,469.555 C 28.6421,469.555 28.0525,469.555 27.944,469.555 C 27.944,469.6782 27.944,473.0619 27.944,473.1854 C 28.0529,473.1854 28.6571,473.1854 28.6571,473.1854 z M 27.8791,473.3154 L 27.8141,473.3154 L 27.8141,469.4255 L 28.6421,469.4255 C 29.9926,469.4255 30.8316,470.1779 30.8316,471.3901 C 30.8316,472.5595 29.9779,473.3154 28.6571,473.3154"
               style="fill:#588fd2;fill-opacity:1;fill-rule:nonzero;stroke:none"
               id="path177" />
            <path
               d="M 28.5124,472.7561 C 29.2972,472.7561 30.233,472.5159 30.233,471.3703 C 30.233,470.2247 29.2972,469.984 28.5124,469.984 C 28.5124,469.984 28.4604,469.984 28.413,469.984 C 28.413,470.1054 28.413,472.6352 28.413,472.7561 C 28.4604,472.7561 28.5124,472.7561 28.5124,472.7561 z M 28.348,472.8861 L 28.283,472.8861 L 28.283,469.8545 L 28.5124,469.8545 C 29.7055,469.8545 30.3626,470.3927 30.3626,471.3703 C 30.3626,472.3479 29.7055,472.8861 28.5124,472.8861"
               style="fill:#588fd2;fill-opacity:1;fill-rule:nonzero;stroke:none"
               id="path179" />
            <path
               d="M 31.9745,473.2504 L 33.9943,473.2504 L 33.9943,472.8211 L 32.4433,472.8211 L 32.4433,471.7689 L 33.9493,471.7689 L 33.9493,471.3409 L 32.4433,471.3409 L 32.4433,469.9195 L 33.9943,469.9195 L 33.9943,469.49 L 31.9745,469.49"
               style="fill:#588fd2;fill-opacity:1;fill-rule:nonzero;stroke:none"
               id="path181" />
            <path
               d="M 33.9295,473.1854 C 33.9295,473.1087 33.9295,472.9628 33.9295,472.8861 C 33.8102,472.8861 32.3785,472.8861 32.3785,472.8861 L 32.3785,471.7039 C 32.3785,471.7039 33.7654,471.7039 33.8843,471.7039 C 33.8843,471.6272 33.8843,471.4826 33.8843,471.4054 C 33.7654,471.4054 32.3785,471.4054 32.3785,471.4054 L 32.3785,469.8545 C 32.3785,469.8545 33.8102,469.8545 33.9295,469.8545 C 33.9295,469.7778 33.9295,469.6317 33.9295,469.555 C 33.8119,469.555 32.1568,469.555 32.0394,469.555 C 32.0394,469.6782 32.0394,473.0619 32.0394,473.1854 C 32.1568,473.1854 33.8119,473.1854 33.9295,473.1854 z M 33.9943,473.3154 L 31.9095,473.3154 L 31.9095,469.4255 L 34.0591,469.4255 L 34.0591,469.984 C 34.0591,469.984 32.6272,469.984 32.5081,469.984 C 32.5081,470.0968 32.5081,471.1631 32.5081,471.2759 C 32.6269,471.2759 34.0141,471.2759 34.0141,471.2759 L 34.0141,471.8339 C 34.0141,471.8339 32.6269,471.8339 32.5081,471.8339 C 32.5081,471.9405 32.5081,472.6495 32.5081,472.7561 C 32.6272,472.7561 34.0591,472.7561 34.0591,472.7561 L 34.0591,473.3154"
               style="fill:#588fd2;fill-opacity:1;fill-rule:nonzero;stroke:none"
               id="path183" />
            <path
               d="M 42.1863,474.6564 L 42.9895,473.9337 L 42.6952,473.7043 L 42.1863,474.1827 L 41.6831,473.7043 L 41.3935,473.9337 L 42.1863,474.6564 z M 41.2838,473.3304 L 41.2838,471.1113 C 41.2838,470.4975 41.4682,469.9291 42.1914,469.9291 C 42.9146,469.9291 43.0992,470.4975 43.0992,471.1113 L 43.0992,473.3304 L 43.5679,473.3304 L 43.5679,470.9514 C 43.5679,470.1236 43.0543,469.49 42.1914,469.49 C 41.3288,469.49 40.815,470.1236 40.815,470.9514 L 40.815,473.3304"
               style="fill:#588fd2;fill-opacity:1;fill-rule:nonzero;stroke:none"
               id="path185" />
            <path
               d="M 43.503,473.266 C 43.503,473.143 43.503,470.9514 43.503,470.9514 C 43.503,470.1161 42.9759,469.555 42.1914,469.555 C 41.407,469.555 40.88,470.1161 40.88,470.9514 C 40.88,470.9514 40.88,473.143 40.88,473.266 C 40.9609,473.266 41.1382,473.266 41.2191,473.266 C 41.2191,473.1435 41.2191,471.1113 41.2191,471.1113 C 41.2191,470.2835 41.5463,469.8641 42.1914,469.8641 C 42.8367,469.8641 43.164,470.2835 43.164,471.1113 C 43.164,471.1113 43.164,473.1435 43.164,473.266 C 43.2449,473.266 43.4222,473.266 43.503,473.266 z M 43.5679,473.3954 L 43.0342,473.3954 L 43.0342,471.1113 C 43.0342,470.3592 42.7587,469.9936 42.1914,469.9936 C 41.6245,469.9936 41.3487,470.3592 41.3487,471.1113 L 41.3487,473.3954 L 40.7501,473.3954 L 40.7501,470.9514 C 40.7501,470.0383 41.3294,469.4255 42.1914,469.4255 C 43.0537,469.4255 43.6327,470.0383 43.6327,470.9514 L 43.6327,473.3954"
               style="fill:#588fd2;fill-opacity:1;fill-rule:nonzero;stroke:none"
               id="path187" />
            <path
               d="M 42.1866,474.5691 C 42.259,474.5041 42.7952,474.021 42.8887,473.9373 C 42.8263,473.8887 42.7472,473.827 42.6991,473.7896 C 42.6306,473.8541 42.1861,474.2719 42.1861,474.2719 C 42.1861,474.2719 41.7483,473.8557 41.6793,473.7901 C 41.6313,473.8281 41.5544,473.8892 41.4936,473.9373 C 41.5851,474.0205 42.115,474.5036 42.1866,474.5691 z M 42.1427,474.7045 L 41.2934,473.9303 L 41.6869,473.6185 C 41.6869,473.6185 42.1127,474.0231 42.1866,474.0938 C 42.2611,474.0231 42.6912,473.619 42.6912,473.619 L 43.0904,473.9303 L 42.1861,474.7443"
               style="fill:#588fd2;fill-opacity:1;fill-rule:nonzero;stroke:none"
               id="path189" />
            <path
               d="M 45.4242,471.4699 L 45.5738,471.4699 C 46.0527,471.4699 46.5711,471.5598 46.5711,472.1584 C 46.5711,472.7465 46.0127,472.8312 45.549,472.8312 L 45.4242,472.8312 L 45.4242,471.4699 z M 47.2942,469.49 L 46.7258,469.49 L 45.6187,471.0815 L 45.4242,471.0815 L 45.4242,469.49 L 44.9555,469.49 L 44.9555,473.2504 L 45.5239,473.2504 C 45.858,473.2504 46.2173,473.2457 46.5163,473.0757 C 46.8306,472.8913 47.0103,472.5372 47.0103,472.1784 C 47.0103,471.6394 46.651,471.1906 46.1076,471.1262"
               style="fill:#588fd2;fill-opacity:1;fill-rule:nonzero;stroke:none"
               id="path191" />
            <path
               d="M 45.5239,473.1854 C 45.8213,473.1854 46.1915,473.1854 46.4843,473.0192 C 46.7685,472.8526 46.9453,472.5302 46.9453,472.1784 C 46.9453,471.6558 46.5974,471.2494 46.1,471.1901 L 45.99,471.1774 C 45.99,471.1774 47.0358,469.7357 47.1671,469.555 C 47.0254,469.555 46.8057,469.555 46.7599,469.555 C 46.7225,469.6088 45.6524,471.1465 45.6524,471.1465 L 45.3593,471.1465 C 45.3593,471.1465 45.3593,469.6743 45.3593,469.555 C 45.2786,469.555 45.1012,469.555 45.0203,469.555 C 45.0203,469.6782 45.0203,473.0619 45.0203,473.1854 C 45.1221,473.1854 45.5239,473.1854 45.5239,473.1854 z M 44.9555,473.3154 L 44.8905,473.3154 L 44.8905,469.4255 L 45.4891,469.4255 C 45.4891,469.4255 45.4891,470.8971 45.4891,471.0164 C 45.5317,471.0164 45.5572,471.0164 45.5848,471.0164 C 45.6221,470.9626 46.692,469.4255 46.692,469.4255 L 47.4216,469.4255 C 47.4216,469.4255 46.3085,470.959 46.2126,471.0916 C 46.7214,471.1997 47.075,471.6248 47.075,472.1784 C 47.075,472.5764 46.8735,472.9415 46.549,473.132 C 46.2259,473.3154 45.8364,473.3154 45.5239,473.3154"
               style="fill:#588fd2;fill-opacity:1;fill-rule:nonzero;stroke:none"
               id="path193" />
            <path
               d="M 45.549,472.7662 C 46.211,472.7662 46.5061,472.579 46.5061,472.1584 C 46.5061,471.7213 46.2274,471.5344 45.5738,471.5344 C 45.5738,471.5344 45.5307,471.5344 45.4891,471.5344 C 45.4891,471.6462 45.4891,472.6547 45.4891,472.7662 C 45.5191,472.7662 45.549,472.7662 45.549,472.7662 z M 45.4242,472.8962 L 45.3593,472.8962 L 45.3593,471.4049 L 45.5738,471.4049 C 46.0298,471.4049 46.6361,471.4832 46.6361,472.1584 C 46.6361,472.8962 45.8177,472.8962 45.549,472.8962"
               style="fill:#588fd2;fill-opacity:1;fill-rule:nonzero;stroke:none"
               id="path195" />
            <path
               d="M 48.4026,473.2504 L 50.4223,473.2504 L 50.4223,472.8211 L 48.8711,472.8211 L 48.8711,471.7689 L 50.3773,471.7689 L 50.3773,471.3409 L 48.8711,471.3409 L 48.8711,469.9195 L 50.4223,469.9195 L 50.4223,469.49 L 48.4026,469.49"
               style="fill:#588fd2;fill-opacity:1;fill-rule:nonzero;stroke:none"
               id="path197" />
            <path
               d="M 50.3573,473.1854 C 50.3573,473.1087 50.3573,472.9628 50.3573,472.8861 C 50.2382,472.8861 48.8064,472.8861 48.8064,472.8861 L 48.8064,471.7039 C 48.8064,471.7039 50.1935,471.7039 50.3123,471.7039 C 50.3123,471.6272 50.3123,471.4826 50.3123,471.4054 C 50.1935,471.4054 48.8064,471.4054 48.8064,471.4054 L 48.8064,469.8545 C 48.8064,469.8545 50.2382,469.8545 50.3573,469.8545 C 50.3573,469.7778 50.3573,469.6317 50.3573,469.555 C 50.24,469.555 48.5848,469.555 48.4673,469.555 C 48.4673,469.6782 48.4673,473.0619 48.4673,473.1854 C 48.5848,473.1854 50.24,473.1854 50.3573,473.1854 z M 50.4223,473.3154 L 48.3376,473.3154 L 48.3376,469.4255 L 50.4873,469.4255 L 50.4873,469.984 C 50.4873,469.984 49.0552,469.984 48.9361,469.984 C 48.9361,470.0968 48.9361,471.1631 48.9361,471.2759 C 49.0549,471.2759 50.4423,471.2759 50.4423,471.2759 L 50.4423,471.8339 C 50.4423,471.8339 49.0549,471.8339 48.9361,471.8339 C 48.9361,471.9405 48.9361,472.6495 48.9361,472.7561 C 49.0552,472.7561 50.4873,472.7561 50.4873,472.7561 L 50.4873,473.3154"
               style="fill:#588fd2;fill-opacity:1;fill-rule:nonzero;stroke:none"
               id="path199" />
            <path
               d="M 52.7524,469.49 L 52.2836,469.49 L 52.2836,472.8211 L 51.3908,472.8211 L 51.3908,473.2504 L 53.645,473.2504 L 53.645,472.8211 L 52.7524,472.8211"
               style="fill:#588fd2;fill-opacity:1;fill-rule:nonzero;stroke:none"
               id="path201" />
            <path
               d="M 53.58,473.1854 C 53.58,473.1087 53.58,472.9628 53.58,472.8861 C 53.4684,472.8861 52.6874,472.8861 52.6874,472.8861 C 52.6874,472.8861 52.6874,469.6798 52.6874,469.555 C 52.6065,469.555 52.4292,469.555 52.3483,469.555 C 52.3483,469.6798 52.3483,472.8861 52.3483,472.8861 C 52.3483,472.8861 51.5673,472.8861 51.4555,472.8861 C 51.4555,472.9628 51.4555,473.1087 51.4555,473.1854 C 51.5743,473.1854 53.4614,473.1854 53.58,473.1854 z M 53.645,473.3154 L 51.3258,473.3154 L 51.3258,472.7561 C 51.3258,472.7561 52.1071,472.7561 52.2186,472.7561 C 52.2186,472.6318 52.2186,469.4255 52.2186,469.4255 L 52.8171,469.4255 C 52.8171,469.4255 52.8171,472.6318 52.8171,472.7561 C 52.9287,472.7561 53.7097,472.7561 53.7097,472.7561 L 53.7097,473.3154"
               style="fill:#588fd2;fill-opacity:1;fill-rule:nonzero;stroke:none"
               id="path203" />
            <path
               d="M 56.2738,474.3572 L 55.4559,473.6149 L 55.2367,473.7496 L 55.8599,474.5771 L 56.2738,474.3572 z M 54.7531,473.2504 L 56.773,473.2504 L 56.773,472.8211 L 55.2221,472.8211 L 55.2221,471.7689 L 56.7278,471.7689 L 56.7278,471.3409 L 55.2221,471.3409 L 55.2221,469.9195 L 56.773,469.9195 L 56.773,469.49 L 54.7531,469.49"
               style="fill:#588fd2;fill-opacity:1;fill-rule:nonzero;stroke:none"
               id="path205" />
            <path
               d="M 56.708,473.1854 C 56.708,473.1087 56.708,472.9628 56.708,472.8861 C 56.5892,472.8861 55.1574,472.8861 55.1574,472.8861 L 55.1574,471.7039 C 55.1574,471.7039 56.544,471.7039 56.6628,471.7039 C 56.6628,471.6272 56.6628,471.4826 56.6628,471.4054 C 56.544,471.4054 55.1574,471.4054 55.1574,471.4054 L 55.1574,469.8545 C 55.1574,469.8545 56.5892,469.8545 56.708,469.8545 C 56.708,469.7778 56.708,469.6317 56.708,469.555 C 56.5908,469.555 54.9356,469.555 54.8178,469.555 C 54.8178,469.6782 54.8178,473.0619 54.8178,473.1854 C 54.9356,473.1854 56.5908,473.1854 56.708,473.1854 z M 56.773,473.3154 L 54.6881,473.3154 L 54.6881,469.4255 L 56.838,469.4255 L 56.838,469.984 C 56.838,469.984 55.4062,469.984 55.2869,469.984 C 55.2869,470.0968 55.2869,471.1631 55.2869,471.2759 C 55.4057,471.2759 56.7928,471.2759 56.7928,471.2759 L 56.7928,471.8339 C 56.7928,471.8339 55.4057,471.8339 55.2869,471.8339 C 55.2869,471.9405 55.2869,472.6495 55.2869,472.7561 C 55.4062,472.7561 56.838,472.7561 56.838,472.7561 L 56.838,473.3154"
               style="fill:#588fd2;fill-opacity:1;fill-rule:nonzero;stroke:none"
               id="path207" />
            <path
               d="M 55.8789,474.4934 C 55.9376,474.4625 56.0723,474.3907 56.162,474.3437 C 56.0528,474.2441 55.5089,473.7498 55.4483,473.6955 C 55.4127,473.7173 55.3781,473.7384 55.3316,473.7672 C 55.4015,473.8606 55.8235,474.4203 55.8789,474.4934 z M 55.8082,474.6159 L 55.142,473.7311 L 55.4637,473.534 L 56.3856,474.371 L 55.8417,474.6603"
               style="fill:#588fd2;fill-opacity:1;fill-rule:nonzero;stroke:none"
               id="path209" />
            <path
               d="M 59.8865,473.436 L 62.7093,470.479 L 62.7093,473.2569 L 63.1776,473.2569 L 63.1776,469.3415 L 60.355,472.299 L 60.355,469.496 L 59.8865,469.496"
               style="fill:#588fd2;fill-opacity:1;fill-rule:nonzero;stroke:none"
               id="path211" />
            <path
               d="M 59.9515,473.2745 C 60.1577,473.0582 62.7738,470.317 62.7738,470.317 C 62.7738,470.317 62.7738,473.0678 62.7738,473.1913 C 62.8552,473.1913 63.0312,473.1913 63.1126,473.1913 C 63.1126,473.0715 63.1126,469.796 63.1126,469.5035 C 62.9064,469.7196 60.29,472.461 60.29,472.461 C 60.29,472.461 60.29,469.685 60.29,469.561 C 60.2094,469.561 60.0321,469.561 59.9515,469.561 C 59.9515,469.6813 59.9515,472.981 59.9515,473.2745 z M 59.8215,473.436 L 59.8215,469.4315 L 60.42,469.4315 C 60.42,469.4315 60.42,471.8497 60.42,472.1371 C 60.6262,471.9207 63.2421,469.1795 63.2421,469.1795 L 63.2421,473.3214 L 62.6443,473.3214 C 62.6443,473.3214 62.6443,470.928 62.6443,470.641 C 62.4382,470.8571 59.8215,473.598 59.8215,473.598"
               style="fill:#588fd2;fill-opacity:1;fill-rule:nonzero;stroke:none"
               id="path213" />
            <path
               d="M 65.151,473.3304 L 65.151,471.1113 C 65.151,470.4975 65.3359,469.9291 66.0589,469.9291 C 66.782,469.9291 66.9663,470.4975 66.9663,471.1113 L 66.9663,473.3304 L 67.4351,473.3304 L 67.4351,470.9514 C 67.4351,470.1236 66.9216,469.49 66.0589,469.49 C 65.196,469.49 64.6822,470.1236 64.6822,470.9514 L 64.6822,473.3304"
               style="fill:#588fd2;fill-opacity:1;fill-rule:nonzero;stroke:none"
               id="path215" />
            <path
               d="M 67.3706,473.266 C 67.3706,473.143 67.3706,470.9514 67.3706,470.9514 C 67.3706,470.1161 66.8433,469.555 66.0589,469.555 C 65.2742,469.555 64.7472,470.1161 64.7472,470.9514 C 64.7472,470.9514 64.7472,473.143 64.7472,473.266 C 64.8283,473.266 65.0057,473.266 65.0865,473.266 C 65.0865,473.1435 65.0865,471.1113 65.0865,471.1113 C 65.0865,470.2835 65.4133,469.8641 66.0589,469.8641 C 66.7042,469.8641 67.0313,470.2835 67.0313,471.1113 C 67.0313,471.1113 67.0313,473.1435 67.0313,473.266 C 67.1127,473.266 67.2892,473.266 67.3706,473.266 z M 67.4351,473.3954 L 66.9018,473.3954 L 66.9018,471.1113 C 66.9018,470.3592 66.626,469.9936 66.0589,469.9936 C 65.4916,469.9936 65.216,470.3592 65.216,471.1113 L 65.216,473.3954 L 64.6172,473.3954 L 64.6172,470.9514 C 64.6172,470.0383 65.1965,469.4255 66.0589,469.4255 C 66.9211,469.4255 67.5001,470.0383 67.5001,470.9514 L 67.5001,473.3954"
               style="fill:#588fd2;fill-opacity:1;fill-rule:nonzero;stroke:none"
               id="path217" />
            <path
               d="M 71.5605,472.6121 C 71.2914,472.8515 70.9222,472.981 70.5684,472.981 C 69.7252,472.981 69.0819,472.2777 69.0819,471.4449 C 69.0819,470.6223 69.7202,469.9195 70.558,469.9195 C 70.9272,469.9195 71.2813,470.0586 71.5605,470.3085 L 71.5605,469.7544 C 71.2717,469.5849 70.9025,469.49 70.5733,469.49 C 69.5013,469.49 68.6126,470.343 68.6126,471.4304 C 68.6126,472.5424 69.5065,473.4103 70.6128,473.4103 C 70.942,473.4103 71.2766,473.3304 71.5605,473.1563"
               style="fill:#588fd2;fill-opacity:1;fill-rule:nonzero;stroke:none"
               id="path219" />
            <path
               d="M 68.6776,471.4304 C 68.6776,472.5036 69.5284,473.3453 70.6128,473.3453 C 70.9378,473.3453 71.2405,473.2628 71.4955,473.1141 C 71.4955,473.0582 71.4955,472.8526 71.4955,472.7246 C 71.2319,472.9207 70.9079,473.046 70.5684,473.046 C 69.713,473.046 69.0169,472.3282 69.0169,471.4449 C 69.0169,470.5679 69.7085,469.8545 70.558,469.8545 C 70.8978,469.8545 71.2207,469.984 71.4955,470.1933 C 71.4955,470.0633 71.4955,469.854 71.4955,469.7975 C 71.2269,469.6473 70.8871,469.555 70.5733,469.555 C 69.5289,469.555 68.6776,470.3963 68.6776,471.4304 z M 68.5482,471.4304 C 68.5482,470.3248 69.4566,469.4255 70.5733,469.4255 C 70.9207,469.4255 71.3021,469.5274 71.593,469.6985 L 71.625,469.717 L 71.625,470.4533 L 71.5174,470.3568 C 71.2488,470.1166 70.9079,469.984 70.558,469.984 C 69.78,469.984 69.1469,470.6397 69.1469,471.4449 C 69.1469,472.2564 69.7847,472.916 70.5684,472.916 C 70.9147,472.916 71.2696,472.7847 71.5174,472.5637 L 71.625,472.4673 L 71.625,473.1924 L 71.5941,473.2116 C 71.3138,473.3837 70.974,473.4753 70.6128,473.4753 C 69.455,473.4753 68.5482,472.577 68.5482,471.4304"
               style="fill:#588fd2;fill-opacity:1;fill-rule:nonzero;stroke:none"
               id="path221" />
            <path
               d="M 73.3267,469.9195 L 74.4689,469.9195 L 74.4689,469.49 L 72.8579,469.49 L 72.8579,473.2504 L 73.3267,473.2504"
               style="fill:#588fd2;fill-opacity:1;fill-rule:nonzero;stroke:none"
               id="path223" />
            <path
               d="M 73.2617,473.1854 C 73.2617,473.0603 73.2617,469.8545 73.2617,469.8545 C 73.2617,469.8545 74.2884,469.8545 74.4041,469.8545 C 74.4041,469.7778 74.4041,469.6317 74.4041,469.555 C 74.2895,469.555 73.0373,469.555 72.9229,469.555 C 72.9229,469.6782 72.9229,473.0619 72.9229,473.1854 C 73.0043,473.1854 73.1808,473.1854 73.2617,473.1854 z M 73.3267,473.3154 L 72.7929,473.3154 L 72.7929,469.4255 L 74.5341,469.4255 L 74.5341,469.984 C 74.5341,469.984 73.5069,469.984 73.3917,469.984 C 73.3917,470.109 73.3917,473.3154 73.3917,473.3154"
               style="fill:#588fd2;fill-opacity:1;fill-rule:nonzero;stroke:none"
               id="path225" />
            <path
               d="M 77.0382,474.3572 L 76.2208,473.6149 L 76.0008,473.7496 L 76.6245,474.5771 L 77.0382,474.3572 z M 75.5169,473.2504 L 77.5369,473.2504 L 77.5369,472.8211 L 75.9865,472.8211 L 75.9865,471.7689 L 77.4922,471.7689 L 77.4922,471.3409 L 75.9865,471.3409 L 75.9865,469.9195 L 77.5369,469.9195 L 77.5369,469.49 L 75.5169,469.49"
               style="fill:#588fd2;fill-opacity:1;fill-rule:nonzero;stroke:none"
               id="path227" />
            <path
               d="M 77.4719,473.1854 C 77.4719,473.1087 77.4719,472.9628 77.4719,472.8861 C 77.3531,472.8861 75.9215,472.8861 75.9215,472.8861 L 75.9215,471.7039 C 75.9215,471.7039 77.3083,471.7039 77.4272,471.7039 C 77.4272,471.6272 77.4272,471.4826 77.4272,471.4054 C 77.3083,471.4054 75.9215,471.4054 75.9215,471.4054 L 75.9215,469.8545 C 75.9215,469.8545 77.3531,469.8545 77.4719,469.8545 C 77.4719,469.7778 77.4719,469.6317 77.4719,469.555 C 77.3546,469.555 75.6997,469.555 75.5819,469.555 C 75.5819,469.6782 75.5819,473.0619 75.5819,473.1854 C 75.6997,473.1854 77.3546,473.1854 77.4719,473.1854 z M 77.5369,473.3154 L 75.4519,473.3154 L 75.4519,469.4255 L 77.6019,469.4255 L 77.6019,469.984 C 77.6019,469.984 76.1703,469.984 76.051,469.984 C 76.051,470.0968 76.051,471.1631 76.051,471.2759 C 76.1703,471.2759 77.5572,471.2759 77.5572,471.2759 L 77.5572,471.8339 C 77.5572,471.8339 76.1703,471.8339 76.051,471.8339 C 76.051,471.9405 76.051,472.6495 76.051,472.7561 C 76.1703,472.7561 77.6019,472.7561 77.6019,472.7561 L 77.6019,473.3154"
               style="fill:#588fd2;fill-opacity:1;fill-rule:nonzero;stroke:none"
               id="path229" />
            <path
               d="M 76.6433,474.4934 C 76.7025,474.4625 76.8367,474.3907 76.9267,474.3437 C 76.8175,474.2441 76.273,473.7498 76.213,473.6955 C 76.1771,473.7173 76.143,473.7384 76.0957,473.7672 C 76.1664,473.8606 76.5874,474.4203 76.6433,474.4934 z M 76.5725,474.6159 L 75.9064,473.7311 L 76.2283,473.534 L 77.15,474.371 L 76.6061,474.6603"
               style="fill:#588fd2;fill-opacity:1;fill-rule:nonzero;stroke:none"
               id="path231" />
            <path
               d="M 80.2518,472.3825 L 79.5828,470.8615 L 80.9195,470.8615 L 80.2518,472.3825 z M 79.3883,470.433 L 78.9599,469.49 L 78.456,469.49 L 80.2518,473.4103 L 82.0468,469.49 L 81.5435,469.49 L 81.114,470.433"
               style="fill:#588fd2;fill-opacity:1;fill-rule:nonzero;stroke:none"
               id="path233" />
            <path
               d="M 80.2518,473.2543 C 80.3594,473.0192 81.868,469.724 81.9457,469.555 C 81.83,469.555 81.6397,469.555 81.5853,469.555 C 81.5534,469.6249 81.1561,470.498 81.1561,470.498 L 79.3462,470.498 C 79.3462,470.498 78.9497,469.6249 78.9172,469.555 C 78.8624,469.555 78.6728,469.555 78.5576,469.555 C 78.6349,469.724 80.1442,473.0192 80.2518,473.2543 z M 80.1923,473.437 L 78.3556,469.4255 L 79.0009,469.4255 C 79.0009,469.4255 79.398,470.2983 79.4302,470.368 C 79.5072,470.368 80.9946,470.368 81.0724,470.368 C 81.1043,470.2983 81.5014,469.4255 81.5014,469.4255 L 82.148,469.4255 L 80.2518,473.566"
               style="fill:#588fd2;fill-opacity:1;fill-rule:nonzero;stroke:none"
               id="path235" />
            <path
               d="M 80.2518,472.2216 C 80.3441,472.0117 80.7565,471.0723 80.8204,470.9265 C 80.6637,470.9265 79.8389,470.9265 79.6824,470.9265 C 79.7469,471.0723 80.1598,472.0117 80.2518,472.2216 z M 80.1923,472.4088 L 79.4835,470.7965 L 81.0191,470.7965 L 80.2518,472.5439"
               style="fill:#588fd2;fill-opacity:1;fill-rule:nonzero;stroke:none"
               id="path237" />
            <path
               d="M 83.0853,469.49 L 83.5546,469.49 L 83.5546,473.2504 L 83.0853,473.2504 L 83.0853,469.49 z"
               style="fill:#588fd2;fill-opacity:1;fill-rule:nonzero;stroke:none"
               id="path239" />
            <path
               d="M 83.4896,473.1854 C 83.4896,473.0619 83.4896,469.6782 83.4896,469.555 C 83.4087,469.555 83.2317,469.555 83.1503,469.555 C 83.1503,469.6782 83.1503,473.0619 83.1503,473.1854 C 83.2317,473.1854 83.4087,473.1854 83.4896,473.1854 z M 83.5546,473.3154 L 83.0208,473.3154 L 83.0208,469.4255 L 83.6196,469.4255 L 83.6196,473.3154"
               style="fill:#588fd2;fill-opacity:1;fill-rule:nonzero;stroke:none"
               id="path241" />
            <path
               d="M 85.4653,471.4699 L 85.6153,471.4699 C 86.0935,471.4699 86.6122,471.5598 86.6122,472.1584 C 86.6122,472.7465 86.054,472.8312 85.5904,472.8312 L 85.4653,472.8312 L 85.4653,471.4699 z M 87.3358,469.49 L 86.7669,469.49 L 85.6603,471.0815 L 85.4653,471.0815 L 85.4653,469.49 L 84.9963,469.49 L 84.9963,473.2504 L 85.5654,473.2504 C 85.8995,473.2504 86.2581,473.2457 86.5573,473.0757 C 86.8717,472.8913 87.0513,472.5372 87.0513,472.1786 C 87.0513,471.6394 86.6923,471.1906 86.1489,471.1262"
               style="fill:#588fd2;fill-opacity:1;fill-rule:nonzero;stroke:none"
               id="path243" />
            <path
               d="M 85.5654,473.1854 C 85.8626,473.1854 86.2328,473.1854 86.5253,473.0192 C 86.8095,472.8526 86.9863,472.5302 86.9863,472.1786 C 86.9863,471.6558 86.639,471.2494 86.1413,471.1901 L 86.0316,471.1774 C 86.0316,471.1774 87.0773,469.7357 87.2089,469.555 C 87.0672,469.555 86.8467,469.555 86.8009,469.555 C 86.7635,469.6088 85.6944,471.1465 85.6944,471.1465 L 85.4003,471.1465 C 85.4003,471.1465 85.4003,469.6743 85.4003,469.555 C 85.3192,469.555 85.1419,469.555 85.0613,469.555 C 85.0613,469.6782 85.0613,473.0619 85.0613,473.1854 C 85.1627,473.1854 85.5654,473.1854 85.5654,473.1854 z M 84.9963,473.3154 L 84.9313,473.3154 L 84.9313,469.4255 L 85.5308,469.4255 C 85.5308,469.4255 85.5308,470.8971 85.5308,471.0164 C 85.573,471.0164 85.599,471.0164 85.6265,471.0164 C 85.664,470.9626 86.7328,469.4255 86.7328,469.4255 L 87.4626,469.4255 C 87.4626,469.4255 86.3501,470.959 86.2547,471.0916 C 86.763,471.1997 87.1163,471.6248 87.1163,472.1786 C 87.1163,472.5764 86.9153,472.9415 86.5898,473.132 C 86.2664,473.3154 85.8777,473.3154 85.5654,473.3154"
               style="fill:#588fd2;fill-opacity:1;fill-rule:nonzero;stroke:none"
               id="path245" />
            <path
               d="M 85.5904,472.7662 C 86.2526,472.7662 86.5472,472.579 86.5472,472.1584 C 86.5472,471.7213 86.2682,471.5344 85.6153,471.5344 C 85.6153,471.5344 85.5722,471.5344 85.5308,471.5344 C 85.5308,471.6462 85.5308,472.6547 85.5308,472.7662 C 85.5605,472.7662 85.5904,472.7662 85.5904,472.7662 z M 85.4653,472.8962 L 85.4003,472.8962 L 85.4003,471.4049 L 85.6153,471.4049 C 86.0709,471.4049 86.6772,471.4832 86.6772,472.1584 C 86.6772,472.8962 85.8595,472.8962 85.5904,472.8962"
               style="fill:#588fd2;fill-opacity:1;fill-rule:nonzero;stroke:none"
               id="path247" />
            <path
               d="M 88.4441,473.2504 L 90.4633,473.2504 L 90.4633,472.8211 L 88.9124,472.8211 L 88.9124,471.7689 L 90.4191,471.7689 L 90.4191,471.3409 L 88.9124,471.3409 L 88.9124,469.9195 L 90.4633,469.9195 L 90.4633,469.49 L 88.4441,469.49"
               style="fill:#588fd2;fill-opacity:1;fill-rule:nonzero;stroke:none"
               id="path249" />
            <path
               d="M 90.3988,473.1854 C 90.3988,473.1087 90.3988,472.9628 90.3988,472.8861 C 90.2795,472.8861 88.8474,472.8861 88.8474,472.8861 L 88.8474,471.7039 C 88.8474,471.7039 90.2353,471.7039 90.3541,471.7039 C 90.3541,471.6272 90.3541,471.4826 90.3541,471.4054 C 90.2353,471.4054 88.8474,471.4054 88.8474,471.4054 L 88.8474,469.8545 C 88.8474,469.8545 90.2795,469.8545 90.3988,469.8545 C 90.3988,469.7778 90.3988,469.6317 90.3988,469.555 C 90.281,469.555 88.6272,469.555 88.5091,469.555 C 88.5091,469.6782 88.5091,473.0619 88.5091,473.1854 C 88.6272,473.1854 90.281,473.1854 90.3988,473.1854 z M 90.4633,473.3154 L 88.3797,473.3154 L 88.3797,469.4255 L 90.5283,469.4255 L 90.5283,469.984 C 90.5283,469.984 89.0962,469.984 88.9774,469.984 C 88.9774,470.0968 88.9774,471.1631 88.9774,471.2759 C 89.0962,471.2759 90.4836,471.2759 90.4836,471.2759 L 90.4836,471.8339 C 90.4836,471.8339 89.0962,471.8339 88.9774,471.8339 C 88.9774,471.9405 88.9774,472.6495 88.9774,472.7561 C 89.0962,472.7561 90.5283,472.7561 90.5283,472.7561 L 90.5283,473.3154"
               style="fill:#588fd2;fill-opacity:1;fill-rule:nonzero;stroke:none"
               id="path251" />
          </g>
        </g>
      </g>
    </g>
  </g>
</svg>
